<?xml version="1.0" encoding="utf-8"?>
<!-- Generator: Adobe Illustrator 21.0.0, SVG Export Plug-In . SVG Version: 6.00 Build 0)  -->
<svg version="1.1" id="Layer_1" xmlns="http://www.w3.org/2000/svg" xmlns:xlink="http://www.w3.org/1999/xlink" x="0px" y="0px"
	 viewBox="0 0 431.2 126.5" style="enable-background:new 0 0 431.2 126.5;" xml:space="preserve">
<style type="text/css">
	.st0{fill:#54565B;}
	.st1{fill:#059848;}
</style>
<g>
	<path class="st0" d="M251.8,66.9c-1.9-3.1,0.6-5.7,0.6-5.7l22-22.7c2.5-2.6-1.1-2.6-1.1-2.6h-20.5c-3.6,0-6.1,2.6-6.1,2.6
		l-20.4,21.6c-2.5,2.6-2.5-1-2.5-1V12c0-3.6-3.6-3.6-3.6-3.6h-15.5c-3.5,0-3.5,3.5-3.5,3.5v98.7c0,3.6,3.6,3.6,3.6,3.6h15.4
		c3.5,0,3.5-3.5,3.5-3.5V93.3c0-3.6,2.6-6.1,2.6-6.1l7.3-6.8l18.2,30.6c1.8,3.1,5.4,3.1,5.4,3.1h19.5c3.6,0,1.7-3.1,1.7-3.1
		L251.8,66.9L251.8,66.9z M185,110.5V39.4c0-3.6-3.6-3.6-3.6-3.6h-15.6c-3.6,0-3.6,3.6-3.6,3.6v71.1c0,3.6,3.6,3.6,3.6,3.6h15.6
		C185,114.1,185,110.5,185,110.5L185,110.5z M184.4,22V11.8c0,0,0-3.5-3.5-3.5h-15.2c0,0-3.5,0-3.5,3.5V22c0,0,0,3.5,3.5,3.5H181
		C181,25.5,184.4,25.5,184.4,22L184.4,22z M145.5,110.5V12c0-3.6-3.6-3.6-3.6-3.6H126c-3.6,0-3.6,3.6-3.6,3.6v98.5
		c0,3.6,3.6,3.6,3.6,3.6h15.9C145.5,114.1,145.5,110.5,145.5,110.5L145.5,110.5z M109.8,106.3c0,0,2-2.3-0.3-4.3L96.8,90.9
		c5.7-8.5,9.1-18.6,9.1-29.6c0-29.2-23.7-52.9-52.9-52.9C23.7,8.3,0,32,0,61.3c0,29.2,23.7,52.9,52.9,52.9c10.7,0,20.6-3.2,29-8.7
		l14,12.1c0,0,2.3,2,4.3-0.3L109.8,106.3L109.8,106.3z M83.5,61.3c0,16.9-13.7,30.6-30.6,30.6c-16.9,0-30.6-13.7-30.6-30.6
		c0-16.9,13.7-30.6,30.6-30.6C69.8,30.7,83.5,44.4,83.5,61.3L83.5,61.3z"/>
	<path class="st1" d="M428.3,107.4l-17-14.3c5.9-9.4,9.4-20.5,9.4-32.4c0-33.5-27.2-60.7-60.7-60.7c-33.5,0-60.7,27.2-60.7,60.7
		c0,33.5,27.2,60.7,60.7,60.7c13,0,25.1-4.1,35-11.1l18.1,15.2c0,0,2.7,2.3,5-0.4l10.8-12.8C428.7,112.4,431,109.7,428.3,107.4
		L428.3,107.4z M397.2,60.7c0,20.6-16.7,37.3-37.3,37.3c-20.6,0-37.3-16.7-37.3-37.3c0-20.6,16.7-37.3,37.3-37.3
		C380.5,23.4,397.2,40.1,397.2,60.7L397.2,60.7z"/>
	<path class="st0" d="M336,60.7c0-13.2,10.7-23.9,23.9-23.9c13.2,0,23.9,10.7,23.9,23.9c0,13.2-10.7,23.9-23.9,23.9
		C346.7,84.7,336,74,336,60.7L336,60.7z"/>
	<g>
		<path class="st0" d="M418,17.9c0-3.7,3-6.6,6.6-6.6c3.7,0,6.6,3,6.6,6.6c0,3.6-3,6.6-6.6,6.6C421,24.5,418,21.5,418,17.9z
			 M424.6,12.2c-3.1,0-5.6,2.5-5.6,5.7c0,3.2,2.4,5.7,5.6,5.7c3.2,0,5.6-2.5,5.6-5.7C430.2,14.7,427.8,12.2,424.6,12.2z M423.1,21.9
			h-0.9v-8.1h2.9c1.4,0,2.5,0.7,2.5,2.2c0,1.3-0.7,2.1-1.9,2.2l2.3,3.6h-1.1l-2.1-3.6h-1.6V21.9z M423.1,17.6h1.8
			c1.1,0,1.8-0.2,1.8-1.5c0-1-0.8-1.4-1.8-1.4h-1.8V17.6z"/>
	</g>
</g>
</svg>
